<svg xmlns="http://www.w3.org/2000/svg" x="0px" y="0px"
     width="40" height="40"
     viewBox="0 0 172 172"
     style=" fill:#000000;">
    <g fill="none" fill-rule="nonzero" stroke="none" stroke-width="5" stroke-linecap="butt" stroke-linejoin="miter"
       stroke-miterlimit="10" stroke-dasharray="" stroke-dashoffset="0" font-family="none" font-weight="none"
       font-size="none" text-anchor="none" style="mix-blend-mode: normal">
        <path d="M0,172v-172h172v172z" fill="none" stroke="none"></path>
        <g>
            <path d="M85.9613,165.55c-43.4429,0 -78.3546,-34.0345 -79.4855,-77.4817c-1.1395,-43.8471 33.6088,-80.453 77.4559,-81.5925c0.7009,-0.0172 1.4061,-0.0258 2.107,-0.0258c43.4429,0 78.3546,34.0345 79.4855,77.4817c1.1395,43.8471 -33.6045,80.4487 -77.4559,81.5925c-0.7009,0.0172 -1.4061,0.0258 -2.107,0.0258z"
                  fill="#c6e8f8" stroke="none"></path>
            <path d="M86.0473,4.3v4.3v0c42.2604,0 76.2261,33.1143 77.3269,75.3876c1.1094,42.6646 -32.6972,78.2772 -75.3618,79.3866c-0.6837,0.0172 -1.3717,0.0258 -2.0511,0.0258c-42.2647,0 -76.2347,-33.1143 -77.3312,-75.3876c-1.1137,-42.6646 32.6929,-78.2772 75.3575,-79.3866c0.6837,-0.0172 1.3717,-0.0258 2.0511,-0.0258l0.0086,-4.3M86.0387,4.3c-0.7181,0 -1.4448,0.0086 -2.1629,0.0301c-45.107,1.1696 -80.7196,38.6871 -79.5457,83.7941c1.1524,44.3846 37.4917,79.5758 81.6312,79.5758c0.7181,0 1.4448,-0.0086 2.1629,-0.0301c45.107,-1.1739 80.7196,-38.6914 79.5457,-83.7941c-1.1524,-44.3846 -37.4917,-79.5801 -81.6312,-79.5758z"
                  fill="#053a7a" stroke="none"></path>
            <path d="M129.7697,113.6447c0,0 -14.5899,17.5053 -43.7697,17.5053c-29.1798,0 -43.7697,-17.5053 -43.7697,-17.5053"
                  fill="none" stroke="#053a7a"></path>
            <path d="M116.1,88.15c-8.299,0 -15.05,-6.751 -15.05,-15.05c0,-8.299 6.751,-15.05 15.05,-15.05c8.299,0 15.05,6.751 15.05,15.05c0,8.299 -6.751,15.05 -15.05,15.05z"
                  fill="#ffffff" stroke="none"></path>
            <path d="M116.1,60.2c7.1122,0 12.9,5.7878 12.9,12.9c0,7.1122 -5.7878,12.9 -12.9,12.9c-7.1122,0 -12.9,-5.7878 -12.9,-12.9c0,-7.1122 5.7878,-12.9 12.9,-12.9M116.1,55.9c-9.4987,0 -17.2,7.7013 -17.2,17.2c0,9.4987 7.7013,17.2 17.2,17.2c9.4987,0 17.2,-7.7013 17.2,-17.2c0,-9.4987 -7.7013,-17.2 -17.2,-17.2z"
                  fill="#053a7a" stroke="none"></path>
            <path d="M116.1,67.725c-2.96853,0 -5.375,2.40647 -5.375,5.375c0,2.96853 2.40647,5.375 5.375,5.375c2.96853,0 5.375,-2.40647 5.375,-5.375c0,-2.96853 -2.40647,-5.375 -5.375,-5.375z"
                  fill="#36404d" stroke="black" stroke-width="5"></path>
            <g stroke="none">
                <path d="M55.9,88.15c-8.299,0 -15.05,-6.751 -15.05,-15.05c0,-8.299 6.751,-15.05 15.05,-15.05c8.299,0 15.05,6.751 15.05,15.05c0,8.299 -6.751,15.05 -15.05,15.05z"
                      fill="#ffffff"></path>
                <path d="M55.9,60.2c7.1122,0 12.9,5.7878 12.9,12.9c0,7.1122 -5.7878,12.9 -12.9,12.9c-7.1122,0 -12.9,-5.7878 -12.9,-12.9c0,-7.1122 5.7878,-12.9 12.9,-12.9M55.9,55.9c-9.4987,0 -17.2,7.7013 -17.2,17.2c0,9.4987 7.7013,17.2 17.2,17.2c9.4987,0 17.2,-7.7013 17.2,-17.2c0,-9.4987 -7.7013,-17.2 -17.2,-17.2z"
                      fill="#053a7a"></path>
            </g>
            <path d="M55.9,67.725c-2.96853,0 -5.375,2.40647 -5.375,5.375c0,2.96853 2.40647,5.375 5.375,5.375c2.96853,0 5.375,-2.40647 5.375,-5.375c0,-2.96853 -2.40647,-5.375 -5.375,-5.375z"
                  fill="#36404d" stroke="black" stroke-width="5"></path>
        </g>
    </g>
</svg>