<svg xmlns="http://www.w3.org/2000/svg" x="0px" y="0px"
     width="40" height="40"
     viewBox="0 0 172 172"
     style=" fill:#000000;">
    <g transform="">
        <g fill="none" fill-rule="nonzero" stroke="none" stroke-width="5" stroke-linecap="none" stroke-linejoin="miter"
           stroke-miterlimit="10" stroke-dasharray="" stroke-dashoffset="0" font-family="none" font-weight="none"
           font-size="none" text-anchor="none" style="mix-blend-mode: normal">
            <path d="M0,172v-172h172v172z" fill="none" stroke="none" stroke-linecap="butt"></path>
            <g>
                <path d="M85.9527,165.55c-43.4386,0 -78.346,-34.0345 -79.4726,-77.4817c-0.5547,-21.242 7.1982,-41.4305 21.8268,-56.8417c14.6286,-15.4069 34.3828,-24.2004 55.6248,-24.7508c0.7052,-0.0172 1.4147,-0.0258 2.1156,-0.0258c43.4386,0 78.346,34.0345 79.4726,77.4817c0.5547,21.242 -7.1982,41.4305 -21.8268,56.8417c-14.6286,15.4069 -34.3828,24.2004 -55.6248,24.7508c-0.7052,0.0172 -1.4147,0.0258 -2.1156,0.0258z"
                      fill="#c6e8f8" stroke="none" stroke-linecap="butt"></path>
                <path d="M86.0473,4.3v4.3v0c42.2604,0 76.2261,33.1143 77.3269,75.3876c1.1094,42.6646 -32.6972,78.2772 -75.3618,79.3866c-0.6837,0.0172 -1.3717,0.0258 -2.0511,0.0258c-42.2647,0 -76.2347,-33.1143 -77.3312,-75.3876c-0.5375,-20.6658 7.0047,-40.3082 21.2377,-55.3023c14.233,-14.9941 33.454,-23.5468 54.1198,-24.0843c0.6837,-0.0172 1.3717,-0.0258 2.0554,-0.0258l0.0043,-4.3M86.0387,4.3c-0.7181,0 -1.4448,0.0086 -2.1629,0.0301c-45.107,1.1696 -80.7196,38.6871 -79.5457,83.7941c1.1524,44.3846 37.4917,79.5758 81.6312,79.5758c0.7181,0 1.4448,-0.0086 2.1629,-0.0301c45.107,-1.1739 80.7196,-38.6914 79.5457,-83.7941c-1.1524,-44.3846 -37.4917,-79.5801 -81.6312,-79.5758z"
                      fill="#053a7a" stroke="none" stroke-linecap="butt"></path>
                <path d="M129.7697,131.4553c0,0 -14.5899,-17.5053 -43.7697,-17.5053c-29.1798,0 -43.7697,17.5053 -43.7697,17.5053"
                      fill="none" stroke="#053a7a" stroke-linecap="round"></path>
                <path d="M116.1,58.05c-8.31189,0 -15.05,6.73811 -15.05,15.05c0,8.31189 6.73811,15.05 15.05,15.05c8.31189,0 15.05,-6.73811 15.05,-15.05c0,-8.31189 -6.73811,-15.05 -15.05,-15.05z"
                      fill="#ffffff" stroke="none" stroke-linecap="butt"></path>
                <path d="M116.1,60.2c7.1122,0 12.9,5.7878 12.9,12.9c0,7.1122 -5.7878,12.9 -12.9,12.9c-7.1122,0 -12.9,-5.7878 -12.9,-12.9c0,-7.1122 5.7878,-12.9 12.9,-12.9M116.1,55.9c-9.4987,0 -17.2,7.7013 -17.2,17.2c0,9.4987 7.7013,17.2 17.2,17.2c9.4987,0 17.2,-7.7013 17.2,-17.2c0,-9.4987 -7.7013,-17.2 -17.2,-17.2z"
                      fill="#053a7a" stroke="none" stroke-linecap="butt"></path>
                <path d="M116.1,67.725c-2.96853,0 -5.375,2.40647 -5.375,5.375c0,2.96853 2.40647,5.375 5.375,5.375c2.96853,0 5.375,-2.40647 5.375,-5.375c0,-2.96853 -2.40647,-5.375 -5.375,-5.375z"
                      fill="#053a7a" stroke="black" stroke-width="5" stroke-linecap="butt"></path>
                <g stroke="none" stroke-linecap="butt">
                    <path d="M55.9,58.05c-8.31189,0 -15.05,6.73811 -15.05,15.05c0,8.31189 6.73811,15.05 15.05,15.05c8.31189,0 15.05,-6.73811 15.05,-15.05c0,-8.31189 -6.73811,-15.05 -15.05,-15.05z"
                          fill="#ffffff"></path>
                    <path d="M55.9,60.2c7.1122,0 12.9,5.7878 12.9,12.9c0,7.1122 -5.7878,12.9 -12.9,12.9c-7.1122,0 -12.9,-5.7878 -12.9,-12.9c0,-7.1122 5.7878,-12.9 12.9,-12.9M55.9,55.9c-9.4987,0 -17.2,7.7013 -17.2,17.2c0,9.4987 7.7013,17.2 17.2,17.2c9.4987,0 17.2,-7.7013 17.2,-17.2c0,-9.4987 -7.7013,-17.2 -17.2,-17.2z"
                          fill="#053a7a"></path>
                </g>
                <path d="M55.9,67.725c-2.96853,0 -5.375,2.40647 -5.375,5.375c0,2.96853 2.40647,5.375 5.375,5.375c2.96853,0 5.375,-2.40647 5.375,-5.375c0,-2.96853 -2.40647,-5.375 -5.375,-5.375z"
                      fill="#053a7a" stroke="black" stroke-width="5" stroke-linecap="butt"></path>
            </g>
            <path d="" fill="none" stroke="none" stroke-linecap="butt"></path>
            <path d="" fill="none" stroke="none" stroke-linecap="butt"></path>
        </g>
    </g>
</svg>